<mxfile host="app.diagrams.net" modified="2020-08-10T12:03:11.125Z" agent="5.0 (Windows)" etag="gHHfDlYPPmqrMFxe1Mj6" version="13.6.2" type="github">
  <diagram id="kWQLFNSB2sI76OIZQyzb" name="Page-1">
    <mxGraphModel dx="981" dy="613" grid="1" gridSize="10" guides="1" tooltips="1" connect="1" arrows="1" fold="1" page="1" pageScale="1" pageWidth="850" pageHeight="1100" math="0" shadow="0">
      <root>
        <mxCell id="0" />
        <mxCell id="1" parent="0" />
        <mxCell id="mZxBZy-Sv40L-NwGtxdH-5" value="" style="endArrow=classic;html=1;strokeWidth=2;" edge="1" parent="1">
          <mxGeometry width="50" height="50" relative="1" as="geometry">
            <mxPoint x="120" y="320" as="sourcePoint" />
            <mxPoint x="190" y="220" as="targetPoint" />
          </mxGeometry>
        </mxCell>
        <mxCell id="mZxBZy-Sv40L-NwGtxdH-10" value="" style="endArrow=classic;startArrow=classic;html=1;curved=1;" edge="1" parent="1">
          <mxGeometry width="50" height="50" relative="1" as="geometry">
            <mxPoint x="190" y="320" as="sourcePoint" />
            <mxPoint x="170" y="250" as="targetPoint" />
            <Array as="points">
              <mxPoint x="200" y="280" />
            </Array>
          </mxGeometry>
        </mxCell>
        <mxCell id="mZxBZy-Sv40L-NwGtxdH-11" value="" style="endArrow=classic;html=1;strokeWidth=2;" edge="1" parent="1">
          <mxGeometry width="50" height="50" relative="1" as="geometry">
            <mxPoint x="190" y="220" as="sourcePoint" />
            <mxPoint x="280" y="180" as="targetPoint" />
          </mxGeometry>
        </mxCell>
        <mxCell id="mZxBZy-Sv40L-NwGtxdH-12" value=" &lt;b&gt;Φ&lt;/b&gt;&lt;sub&gt;1&lt;/sub&gt;" style="text;html=1;strokeColor=none;fillColor=none;align=center;verticalAlign=middle;whiteSpace=wrap;rounded=0;" vertex="1" parent="1">
          <mxGeometry x="160" y="280" width="40" height="20" as="geometry" />
        </mxCell>
        <mxCell id="mZxBZy-Sv40L-NwGtxdH-13" value="" style="endArrow=classic;html=1;" edge="1" parent="1">
          <mxGeometry width="50" height="50" relative="1" as="geometry">
            <mxPoint x="120" y="320" as="sourcePoint" />
            <mxPoint x="120" y="120" as="targetPoint" />
          </mxGeometry>
        </mxCell>
        <mxCell id="mZxBZy-Sv40L-NwGtxdH-14" value="" style="endArrow=classic;html=1;" edge="1" parent="1">
          <mxGeometry width="50" height="50" relative="1" as="geometry">
            <mxPoint x="120" y="320" as="sourcePoint" />
            <mxPoint x="400" y="320" as="targetPoint" />
          </mxGeometry>
        </mxCell>
        <mxCell id="mZxBZy-Sv40L-NwGtxdH-15" value="" style="endArrow=classic;startArrow=classic;html=1;strokeWidth=1;dashed=1;dashPattern=1 1;" edge="1" parent="1">
          <mxGeometry width="50" height="50" relative="1" as="geometry">
            <mxPoint x="184" y="209" as="sourcePoint" />
            <mxPoint x="272" y="165" as="targetPoint" />
          </mxGeometry>
        </mxCell>
        <mxCell id="mZxBZy-Sv40L-NwGtxdH-16" value="" style="endArrow=none;dashed=1;html=1;dashPattern=1 3;strokeWidth=1;" edge="1" parent="1">
          <mxGeometry width="50" height="50" relative="1" as="geometry">
            <mxPoint x="190" y="220" as="sourcePoint" />
            <mxPoint x="180" y="200" as="targetPoint" />
          </mxGeometry>
        </mxCell>
        <mxCell id="mZxBZy-Sv40L-NwGtxdH-17" value="" style="endArrow=none;dashed=1;html=1;dashPattern=1 3;strokeWidth=1;" edge="1" parent="1">
          <mxGeometry width="50" height="50" relative="1" as="geometry">
            <mxPoint x="280" y="180" as="sourcePoint" />
            <mxPoint x="270" y="160" as="targetPoint" />
          </mxGeometry>
        </mxCell>
        <mxCell id="mZxBZy-Sv40L-NwGtxdH-18" value=" &lt;b&gt;Φ&lt;/b&gt;2" style="text;html=1;strokeColor=none;fillColor=none;align=center;verticalAlign=middle;whiteSpace=wrap;rounded=0;" vertex="1" parent="1">
          <mxGeometry x="270" y="200" width="40" height="20" as="geometry" />
        </mxCell>
        <mxCell id="mZxBZy-Sv40L-NwGtxdH-19" value="" style="endArrow=none;dashed=1;html=1;dashPattern=1 3;strokeWidth=1;" edge="1" parent="1">
          <mxGeometry width="50" height="50" relative="1" as="geometry">
            <mxPoint x="310" y="220" as="sourcePoint" />
            <mxPoint x="190" y="220" as="targetPoint" />
          </mxGeometry>
        </mxCell>
        <mxCell id="mZxBZy-Sv40L-NwGtxdH-20" value="" style="endArrow=classic;startArrow=classic;html=1;curved=1;" edge="1" parent="1">
          <mxGeometry width="50" height="50" relative="1" as="geometry">
            <mxPoint x="270" y="220" as="sourcePoint" />
            <mxPoint x="260" y="190" as="targetPoint" />
            <Array as="points">
              <mxPoint x="270" y="200" />
            </Array>
          </mxGeometry>
        </mxCell>
        <mxCell id="mZxBZy-Sv40L-NwGtxdH-21" value="0.23m" style="text;html=1;strokeColor=none;fillColor=none;align=center;verticalAlign=middle;whiteSpace=wrap;rounded=0;rotation=-30;" vertex="1" parent="1">
          <mxGeometry x="190" y="170" width="60" height="20" as="geometry" />
        </mxCell>
        <mxCell id="mZxBZy-Sv40L-NwGtxdH-22" value="" style="endArrow=classic;html=1;strokeWidth=2;" edge="1" parent="1">
          <mxGeometry width="50" height="50" relative="1" as="geometry">
            <mxPoint x="280" y="180" as="sourcePoint" />
            <mxPoint x="380" y="150" as="targetPoint" />
          </mxGeometry>
        </mxCell>
        <mxCell id="mZxBZy-Sv40L-NwGtxdH-23" value="&lt;div&gt;X&lt;/div&gt;(sample local coordinate)" style="text;html=1;strokeColor=none;fillColor=none;align=center;verticalAlign=middle;whiteSpace=wrap;rounded=0;" vertex="1" parent="1">
          <mxGeometry x="190" y="330" width="170" height="20" as="geometry" />
        </mxCell>
        <mxCell id="mZxBZy-Sv40L-NwGtxdH-24" value="&lt;div&gt;Y&lt;/div&gt;(sample local coordinates)" style="text;html=1;strokeColor=none;fillColor=none;align=center;verticalAlign=middle;whiteSpace=wrap;rounded=0;rotation=-90;" vertex="1" parent="1">
          <mxGeometry x="20" y="210" width="160" height="20" as="geometry" />
        </mxCell>
      </root>
    </mxGraphModel>
  </diagram>
</mxfile>
